<svg width="18" height="17" viewBox="0 0 18 17" fill="none" xmlns="http://www.w3.org/2000/svg">
<path d="M4.43469 16.6406V5.84482H0.849506V16.6406H4.43469ZM2.64284 4.37109C3.89281 4.37109 4.671 3.54209 4.671 2.50609C4.6476 1.44648 3.89281 0.640625 2.66662 0.640625C1.43958 0.640625 0.638184 1.44648 0.638184 2.506C0.638184 3.542 1.41609 4.37099 2.61935 4.37099L2.64284 4.37109ZM6.41913 16.6406H10.004V10.6124C10.004 10.2902 10.0274 9.9671 10.1221 9.73695C10.3812 9.09203 10.9711 8.42443 11.9617 8.42443C13.2587 8.42443 13.7778 9.41435 13.7778 10.8658V16.6406H17.3626V10.4506C17.3626 7.13477 15.5942 5.59172 13.2354 5.59172C11.3016 5.59172 10.4523 6.67353 9.98044 7.41035H10.0043V5.84519H6.41932C6.46611 6.85797 6.41913 16.6406 6.41913 16.6406Z" fill="white"/>
</svg>
