<svg width="21" height="17" viewBox="0 0 21 17" fill="none" xmlns="http://www.w3.org/2000/svg">
<path d="M20.184 2.56267C19.5567 2.83287 18.8972 3.02103 18.2219 3.12249C18.5376 3.06831 19.0022 2.49946 19.1871 2.26921C19.4681 1.9219 19.6822 1.52542 19.8186 1.09991C19.8186 1.0683 19.8502 1.02316 19.8186 1.00058C19.8027 0.991889 19.7849 0.987333 19.7667 0.987333C19.7486 0.987333 19.7308 0.991889 19.7149 1.00058C18.9815 1.39807 18.2011 1.70144 17.392 1.90352C17.3638 1.91214 17.3337 1.91292 17.3051 1.90576C17.2765 1.8986 17.2504 1.88378 17.2296 1.86289C17.1666 1.78782 17.0988 1.71694 17.0266 1.6507C16.6966 1.35474 16.3221 1.11251 15.917 0.932862C15.3701 0.708291 14.7794 0.611034 14.1895 0.648436C13.6171 0.684621 13.0582 0.838296 12.5477 1.09991C12.0449 1.37572 11.603 1.75042 11.2486 2.20149C10.8758 2.66576 10.6067 3.20455 10.4593 3.78163C10.3377 4.33055 10.324 4.89788 10.4187 5.45207C10.4187 5.54688 10.4187 5.56042 10.3375 5.54688C7.1215 5.07283 4.48285 3.93062 2.32682 1.47914C2.2321 1.37079 2.18249 1.37079 2.10581 1.47914C1.16762 2.90578 1.62318 5.16313 2.79592 6.27826C2.95379 6.42724 3.11616 6.57171 3.28756 6.70715C2.74987 6.66895 2.22531 6.5231 1.74497 6.27826C1.65476 6.21957 1.60514 6.25117 1.60063 6.35952C1.58784 6.50974 1.58784 6.66077 1.60063 6.81099C1.69474 7.5309 1.9782 8.21288 2.422 8.78718C2.8658 9.36148 3.45402 9.8075 4.12652 10.0796C4.29046 10.1499 4.46128 10.2029 4.63621 10.2376C4.13844 10.3357 3.62791 10.351 3.12519 10.2828C3.01693 10.2602 2.97634 10.3189 3.01693 10.4227C3.67998 12.2286 5.11883 12.7794 6.1743 13.0864C6.31863 13.109 6.46297 13.109 6.62535 13.1451C6.62535 13.1451 6.62535 13.1451 6.59828 13.1722C6.28706 13.741 5.02862 14.1248 4.45128 14.3234C3.39747 14.7023 2.27392 14.8471 1.1586 14.7478C0.982689 14.7207 0.942095 14.7252 0.89699 14.7478C0.851884 14.7704 0.89699 14.8201 0.946605 14.8652C1.17213 15.0142 1.39766 15.1451 1.6322 15.2715C2.33045 15.6527 3.06864 15.9555 3.83334 16.1745C7.79357 17.267 12.25 16.4634 15.2224 13.5063C17.5588 11.1857 18.3798 7.98481 18.3798 4.77938C18.3798 4.65748 18.5286 4.58525 18.6143 4.52204C19.2054 4.06104 19.7265 3.51662 20.1614 2.90578C20.2367 2.81473 20.2753 2.6988 20.2697 2.58072C20.2697 2.513 20.2697 2.52655 20.184 2.56267Z" fill="white"/>
</svg>
