<svg width="21" height="17" viewBox="0 0 21 17" fill="none" xmlns="http://www.w3.org/2000/svg">
<path d="M17.6782 1.99194C20.033 5.47877 21.196 9.41181 20.7613 13.9396C20.7594 13.9588 20.7495 13.9764 20.7339 13.9879C18.9506 15.3067 17.2228 16.107 15.5193 16.6377C15.5061 16.6418 15.4919 16.6415 15.4787 16.6371C15.4656 16.6326 15.4542 16.6241 15.4461 16.6128C15.0525 16.0613 14.6949 15.4799 14.3816 14.8694C14.3637 14.8334 14.3801 14.7901 14.4171 14.7759C14.985 14.5604 15.5251 14.3021 16.0445 13.9963C16.0854 13.9722 16.088 13.9131 16.0502 13.8848C15.94 13.8024 15.8308 13.7157 15.7263 13.6291C15.7067 13.6131 15.6804 13.61 15.6582 13.6207C12.2859 15.1891 8.59158 15.1891 5.17931 13.6207C5.15716 13.6108 5.13083 13.6142 5.11181 13.6299C5.00755 13.7165 4.89808 13.8024 4.78888 13.8848C4.75108 13.9131 4.75421 13.9722 4.79539 13.9963C5.31484 14.2964 5.85488 14.5604 6.42203 14.777C6.45878 14.7911 6.47624 14.8334 6.458 14.8694C6.15149 15.4807 5.79389 16.0621 5.39303 16.6136C5.37557 16.6359 5.3469 16.6461 5.31979 16.6377C3.62435 16.107 1.89658 15.3067 0.1133 13.9879C0.0984435 13.9764 0.0877574 13.958 0.0861936 13.9389C-0.277135 10.0223 0.463336 6.05675 3.16641 1.99116C3.17292 1.98039 3.18283 1.97199 3.1943 1.96701C4.52433 1.35227 5.94923 0.900015 7.43852 0.641732C7.46562 0.637532 7.49273 0.650131 7.5068 0.674279C7.69081 1.00238 7.90115 1.42314 8.04346 1.767C9.61328 1.52551 11.2076 1.52551 12.8103 1.767C12.9526 1.43049 13.1556 1.00238 13.3388 0.674279C13.3454 0.6623 13.3555 0.652702 13.3677 0.646857C13.38 0.641012 13.3938 0.639218 13.4071 0.641732C14.8972 0.900802 16.3221 1.35306 17.6511 1.96701C17.6628 1.97199 17.6724 1.98039 17.6782 1.99194ZM8.84153 9.43859C8.85795 8.28077 8.01974 7.32271 6.96754 7.32271C5.92395 7.32271 5.09382 8.27237 5.09382 9.43859C5.09382 10.6045 5.94037 11.5542 6.96754 11.5542C8.0114 11.5542 8.84153 10.6045 8.84153 9.43859ZM15.7698 9.43859C15.7862 8.28077 14.948 7.32271 13.8961 7.32271C12.8522 7.32271 12.0221 8.27237 12.0221 9.43859C12.0221 10.6045 12.8686 11.5542 13.8961 11.5542C14.948 11.5542 15.7698 10.6045 15.7698 9.43859Z" fill="white"/>
</svg>
