<svg width="48" height="48" viewBox="0 0 48 48" fill="none" xmlns="http://www.w3.org/2000/svg">
<mask id="mask0_12413_2490" style="mask-type:luminance" maskUnits="userSpaceOnUse" x="0" y="0" width="48" height="48">
<path d="M48.0001 0H0.541504V48H48.0001V0Z" fill="white"/>
</mask>
<g mask="url(#mask0_12413_2490)">
<path d="M17.8181 44.8538C17.7876 44.817 17.7616 44.7807 17.7357 44.7438C17.7269 44.7335 17.7233 44.7231 17.7144 44.7127C17.4508 44.3522 17.2213 43.9679 17.029 43.5648L10.4669 29.9853L7.10184 23.0151L5.39079 19.4717L1.30659 11.0145C0.487931 9.31686 0.322272 7.37741 0.841169 5.56552C1.36007 3.75366 2.52726 2.19593 4.12046 1.18904C5.71367 0.182135 7.62158 -0.203593 9.48081 0.105319C11.34 0.414231 13.0207 1.3962 14.2027 2.8642L20.758 11.0269L20.7663 11.0373L21.9381 12.4984L23.8327 14.8534L24.0552 15.1319L24.2771 15.4103L35.1225 28.9084L30.4477 42.7315C30.0262 43.9757 29.2755 45.0825 28.2753 45.9341C27.2751 46.7857 26.0628 47.3503 24.7673 47.568C23.4718 47.7857 22.1416 47.6483 20.918 47.1704C19.6944 46.6924 18.6231 45.8918 17.8181 44.8538Z" fill="url(#paint0_linear_12413_2490)"/>
<g style="mix-blend-mode:multiply" opacity="0.1">
<path d="M17.8179 44.8539C17.7873 44.8171 17.7614 44.7808 17.7354 44.744C17.7266 44.7336 17.723 44.7232 17.7142 44.7128C17.4505 44.3523 17.2211 43.968 17.0288 43.5649L10.4666 29.9854L7.10156 23.0152L7.35148 22.8395L21.9353 12.4985L23.8298 14.8536L24.0523 15.132L24.2743 15.4104L35.1197 28.9085L30.4449 42.7317C30.0231 43.9753 29.2724 45.0814 28.2724 45.9326C27.2724 46.7837 26.0605 47.3481 24.7655 47.5658C23.4705 47.7834 22.1407 47.6462 20.9174 47.1687C19.6941 46.6912 18.623 45.8913 17.8179 44.8539Z" fill="black"/>
</g>
<path d="M22.2559 47.8838H22.2512C22.175 47.8667 22.0983 47.8547 22.022 47.8381C20.7316 47.5782 19.5386 46.9658 18.5753 46.0688C17.6119 45.1718 16.916 44.0254 16.5648 42.7569L10.4668 29.9852C10.4727 29.9798 10.478 29.9739 10.4829 29.9676C10.5099 29.9328 10.539 29.8998 10.57 29.8685L10.6618 29.77L24.0525 15.1318L34.1678 4.06285C34.1771 4.05263 34.1877 4.04373 34.1995 4.03641V4.03174C34.2079 4.02567 34.2151 4.01811 34.2207 4.00945C34.2259 4.00309 34.2315 3.99703 34.2373 3.9913L34.5515 3.6465C35.3531 2.73602 36.3587 2.02818 37.4863 1.58084C38.6138 1.1335 39.8312 0.959363 41.039 1.07267C41.9701 1.15932 42.8772 1.41701 43.7149 1.83278L43.7196 1.83797C43.7279 1.84078 43.7358 1.8448 43.7429 1.8499C43.7545 1.85216 43.7656 1.85656 43.7756 1.86286C43.7915 1.87152 43.8069 1.88104 43.8217 1.89138C44.018 1.98502 44.2085 2.09046 44.3921 2.20714C45.249 2.74002 45.9905 3.43904 46.5729 4.26299L46.5988 4.29462C46.6335 4.3418 46.6724 4.39417 46.7061 4.44602C47.4813 5.60633 47.9253 6.95604 47.9906 8.34992C48.0558 9.74385 47.7397 11.1291 47.0763 12.3568L33.4917 37.5708L33.4207 37.7098L33.4088 37.7331L29.9348 44.1812C29.2196 45.5388 28.0877 46.6312 26.7054 47.2977C25.3231 47.9642 23.7636 48.1696 22.2559 47.8838Z" fill="url(#paint1_linear_12413_2490)"/>
<g style="mix-blend-mode:multiply" opacity="0.3">
<path d="M10.4854 29.9678C10.5124 29.9331 10.5415 29.9 10.5725 29.8687C10.5981 29.8313 10.6275 29.7965 10.6601 29.765C10.8198 29.5659 11.0878 29.2465 11.4378 28.8219C12.0699 28.0929 12.9415 27.0273 14.0355 25.7871C15.1295 24.5469 16.3786 23.0842 17.7573 21.5453C19.1266 20.0007 20.6059 18.3736 22.0904 16.7429C22.6695 16.1114 23.2534 15.4804 23.832 14.8535L24.0544 15.132L34.1698 4.06306C34.1791 4.05284 34.1898 4.04395 34.2014 4.03662C34.0977 4.16313 33.7737 4.55511 33.2681 5.15554C32.6413 5.88453 31.7645 6.95005 30.6756 8.1903C29.5868 9.43055 28.3279 10.8932 26.9539 12.4327C26.0958 13.3976 25.1951 14.3978 24.2743 15.4104C23.7267 16.0155 23.1735 16.6252 22.6208 17.235C21.1327 18.8558 19.6394 20.4766 18.2255 21.9782C16.8115 23.4798 15.4712 24.8668 14.3336 26.0635C13.1961 27.2602 12.2109 28.2282 11.5436 28.9194C11.147 29.315 10.8473 29.6079 10.6699 29.7858C10.5766 29.8791 10.5185 29.9398 10.4854 29.9678Z" fill="black"/>
</g>
<g style="mix-blend-mode:multiply" opacity="0.3">
<path d="M22.2511 47.8832C22.1749 47.8661 22.0981 47.8542 22.0219 47.8376C20.7316 47.5777 19.5385 46.9653 18.5752 46.0683C17.6118 45.1713 16.916 44.0249 16.5648 42.7563L10.4667 29.9852L7.10169 23.015L5.39062 19.4716L1.30643 11.0144C0.458818 9.25783 0.310996 7.24471 0.892948 5.3832C1.4749 3.52169 2.74306 1.9512 4.44023 0.990234C3.6178 1.52205 2.89263 2.19092 2.29624 2.96779C1.69728 3.73261 1.26111 4.61185 1.01452 5.55145C0.785962 6.48402 0.730246 7.45056 0.850146 8.40319C0.877895 8.64196 0.922417 8.87845 0.983394 9.11094C1.03939 9.34427 1.07051 9.5807 1.14621 9.81143L1.3842 10.4901L1.50346 10.8318L1.53405 10.9174L1.5667 10.9838L1.64863 11.1466C2.52438 12.9095 3.40582 14.6656 4.25668 16.4353L6.82429 21.741C6.99902 22.1076 7.17946 22.4669 7.3542 22.8361C8.03498 24.2412 8.71577 25.6422 9.38152 27.0557L10.6601 29.7617L10.6643 29.7669L10.6726 29.7824L11.903 32.3863C12.7383 34.1663 13.5886 35.9375 14.4037 37.73L16.8691 43.0845L16.8738 43.0897L16.8774 43.1001C16.988 43.387 17.1162 43.6668 17.2611 43.938C17.4015 44.2042 17.5525 44.4613 17.7143 44.7095C17.7231 44.7199 17.7267 44.7302 17.7356 44.7406C17.7615 44.7774 17.7874 44.8137 17.818 44.8505C17.9653 45.0724 18.1257 45.2853 18.2981 45.4883C18.3953 45.6108 18.4992 45.7277 18.6092 45.8388C18.7142 45.9558 18.8257 46.0667 18.9431 46.1711C19.0598 46.2748 19.1707 46.3868 19.2931 46.4822L19.6701 46.77C19.7929 46.8592 19.9293 46.9354 20.0646 47.021C20.1943 47.1106 20.3318 47.1885 20.4753 47.2538C20.6153 47.3201 20.7537 47.3964 20.8984 47.4612L21.3401 47.624C21.6386 47.7276 21.9428 47.8142 22.2511 47.8832Z" fill="black"/>
</g>
<g style="mix-blend-mode:screen" opacity="0.6">
<path d="M33.4917 37.5711C33.6068 37.3289 33.8469 36.8411 34.1839 36.1479C34.6858 35.1446 35.3853 33.6979 36.2688 31.991C37.1523 30.2842 38.1618 28.2786 39.2838 26.1517C40.397 24.0191 41.6098 21.7595 42.8226 19.4952C44.0442 17.2418 45.2663 14.9884 46.435 12.8849C46.9938 11.9107 47.3847 10.8493 47.5912 9.74539C47.7551 8.75454 47.7108 7.7404 47.4611 6.76765C47.226 5.94386 46.8606 5.16302 46.379 4.45461C46.0002 3.90413 45.5674 3.39293 45.0869 2.92866C44.7705 2.63554 44.4394 2.35865 44.095 2.09906C43.913 1.96529 43.7891 1.88596 43.7439 1.85226C43.7368 1.84716 43.7289 1.84314 43.7206 1.84033C43.7399 1.84721 43.7586 1.85553 43.7766 1.86522C43.7925 1.87387 43.8079 1.8834 43.8228 1.89374C43.8876 1.929 43.9887 1.98707 44.1173 2.06743C44.4885 2.29583 44.8433 2.54982 45.1791 2.82756C45.6894 3.26002 46.1558 3.74159 46.5718 4.26535L46.5978 4.29698C46.6325 4.34417 46.6714 4.39653 46.7051 4.44838C47.4802 5.6087 47.9243 6.95841 47.9895 8.35228C48.0547 9.74616 47.7387 11.1315 47.0753 12.3591L33.4917 37.5711Z" fill="#12161C"/>
</g>
<g style="mix-blend-mode:screen" opacity="0.4">
<path d="M20.758 11.0269C20.673 10.9461 19.9575 10.2279 18.9791 9.1448C18.4544 8.56563 17.8529 7.87759 17.2219 7.13769C16.5909 6.39779 15.9371 5.58841 15.278 4.78317C14.9566 4.37408 14.6346 3.96964 14.3173 3.56521C14.0262 3.17485 13.7147 2.80015 13.384 2.44266C13.0712 2.11902 12.7331 1.8208 12.3729 1.55085C12.0427 1.31352 11.6976 1.09772 11.3396 0.904797C11.0327 0.742221 10.7168 0.597488 10.3933 0.471331C10.1024 0.356743 9.84321 0.269116 9.62544 0.205341C9.39746 0.13551 9.16585 0.0780497 8.93164 0.0332031C9.95562 0.126965 10.9503 0.425947 11.8562 0.912325C12.7621 1.39871 13.5609 2.06253 14.2048 2.8642L20.758 11.0269Z" fill="#12161C"/>
</g>
<g style="mix-blend-mode:screen" opacity="0.3">
<path d="M26.3301 45.853C37.191 22.5284 39.2847 9.73806 38.5568 2.75127C39.9541 2.3343 41.4537 2.42278 42.7924 3.00118L43.3358 3.27081C43.4395 3.3294 43.5483 3.39265 43.6266 3.4388C44.3187 3.8703 44.918 4.4352 45.3895 5.10059L45.4932 5.24159C46.1275 6.18262 46.4919 7.2794 46.5467 8.41289C46.6016 9.54632 46.3448 10.6732 45.8043 11.671L32.2197 36.885L32.131 37.0561L28.6555 43.4933C28.1252 44.4885 27.3173 45.3082 26.3301 45.853Z" fill="#12161C"/>
</g>
</g>
<defs>
<linearGradient id="paint0_linear_12413_2490" x1="0.544434" y1="23.835" x2="35.1225" y2="23.835" gradientUnits="userSpaceOnUse">
<stop stop-color="#00AFEE"/>
<stop offset="1" stop-color="#01E3A1"/>
</linearGradient>
<linearGradient id="paint1_linear_12413_2490" x1="10.4668" y1="24.5242" x2="47.999" y2="24.5242" gradientUnits="userSpaceOnUse">
<stop stop-color="#00AFEE"/>
<stop offset="1" stop-color="#01E3A1"/>
</linearGradient>
</defs>
</svg>
